<?xml version="1.0" encoding="UTF-8"?>
<svg width="794px" height="289px" viewBox="0 0 794 289" version="1.1" xmlns="http://www.w3.org/2000/svg" xmlns:xlink="http://www.w3.org/1999/xlink">
    <title>Group 24 Copy@3x</title>
    <defs>
        <polygon id="path-1" points="0 4.70750042e-14 99 4.70750042e-14 99 134 0 134"></polygon>
        <polygon id="path-3" points="0 0 42 0 42 50 0 50"></polygon>
        <polygon id="path-5" points="0 289 794 289 794 1 0 1"></polygon>
    </defs>
    <g id="Option-A" stroke="none" stroke-width="1" fill="none" fill-rule="evenodd">
        <g id="210573---The-Rushton---Interim-Landing-Page-R2.2-A" transform="translate(-323.000000, -100.000000)">
            <g id="Group-24-Copy" transform="translate(323.000000, 100.000000)">
                <path d="M187,149 L187,200.777493 C187,215.741683 177.680282,238 152.00083,238 C126.321379,238 117,215.741683 117,200.777493 L117,149 L139.624351,149 L139.624351,200.777493 C139.624351,200.777493 139.738917,205.331956 141.759601,209.430641 C143.798548,213.569247 146.863612,215.334143 151.99917,215.334143 C157.134728,215.334143 160.198131,213.569247 162.238739,209.430641 C164.271045,205.310332 164.375649,200.729254 164.375649,200.682678 L164.375649,149 L187,149 Z" id="Fill-1" fill="#FFFFFF"></path>
                <path d="M295.43608,246.979349 L295.367706,247.341324 C291.883966,264.095112 275.951151,281 248.216313,281 C236.130788,281 224.862415,276.711097 216.489099,268.920336 C210.358784,263.223384 206.04455,255.854374 204.148422,248.085199 C211.055866,245.332198 218.036686,242.736938 224.96581,240.060317 C225.167597,240.624865 225.399401,241.184431 225.636209,241.739017 C225.686239,242.091029 225.801307,242.43972 226.009765,242.763505 C226.043118,242.814978 226.088145,242.911284 226.133171,242.987664 C226.203213,243.218464 226.273255,243.450925 226.344964,243.681725 C226.576769,244.417298 226.886953,244.995129 227.305536,245.582923 C230.659198,253.611126 239.759614,258.286911 248.216313,258.286911 C265.113035,258.286911 271.668603,248.85398 272.921015,243.142084 C273.519704,238.999299 274.625362,228.722867 253.757944,223.992288 L237.259793,220.095247 C215.501845,215.469276 204,203.132244 204,184.412501 C204,160.686547 226.860271,146 248.042876,146 C270.050973,146 286.719226,158.21582 290.916724,176.480604 C284.004277,179.653695 277.108506,182.861655 270.234416,186.117768 C269.794154,183.839651 269.343886,181.724257 268.261575,179.876193 C268.021432,179.241907 267.704577,178.64249 267.272653,178.104509 C263.688854,171.306688 255.318873,168.71475 248.042876,168.71475 C237.91018,168.71475 227.062057,175.022742 227.062057,184.412501 C227.062057,187.989078 227.062057,194.644101 242.166046,198.092824 L258.820957,201.81884 C285.651924,207.937543 298.986526,224.397434 295.43608,246.979349" id="Fill-3" fill="#FFFFFF"></path>
                <polygon id="Fill-5" fill="#FFFFFF" points="422 146 422 280 399.370001 280 399.370001 223.905509 340.629999 223.905509 340.629999 280 318 280 318 146 340.629999 146 340.629999 201.277387 399.370001 201.277387 399.370001 146"></polygon>
                <polygon id="Fill-7" fill="#FFFFFF" points="542 167.542579 501.832545 167.542579 501.832545 281 479.169118 281 479.169118 167.542579 439 167.542579 439 145 542 145"></polygon>
                <path d="M653.416721,209.492386 C653.416721,185.279737 633.716025,165.580131 609.501658,165.580131 C585.285632,165.580131 565.584937,185.279737 565.584937,209.492386 L565.584937,214.507614 C565.584937,238.720263 585.285632,258.419869 609.501658,258.419869 C633.716025,258.419869 653.416721,238.720263 653.416721,214.507614 L653.416721,209.492386 Z M676,209.492386 L676,214.507614 C676,251.172151 646.171307,281 609.501658,281 C572.833666,281 543,251.172151 543,214.507614 L543,209.492386 C543,172.826191 572.833666,143 609.501658,143 C646.171307,143 676,172.826191 676,209.492386 L676,209.492386 Z" id="Fill-9" fill="#FFFFFF"></path>
                <g id="Group-13" transform="translate(695.000000, 147.000000)">
                    <mask id="mask-2" fill="white">
                        <use xlink:href="#path-1"></use>
                    </mask>
                    <g id="Clip-12"></g>
                    <polygon id="Fill-11" fill="#FFFFFF" mask="url(#mask-2)" points="99.0003311 4.70750042e-14 99.0003311 134 82.9781705 134 22.5565136 49.2750578 22.5565136 133.133753 0 133.133753 0 4.70750042e-14 15.1281777 4.70750042e-14 76.442162 85.980421 76.442162 4.70750042e-14"></polygon>
                </g>
                <path d="M73.9516548,185.209729 C70.9996152,176.471039 61.9398504,172.030175 54.4463388,170.786068 C48.9313394,169.872946 28.6859439,169.833028 22.5583508,170.017648 L22.5583508,214.454566 C51.7244357,214.454566 58.3553491,214.88202 65.6154128,210.223271 C73.6105891,205.095487 77.1156187,194.573798 73.9516548,185.209729 M76.3407704,230.183875 C91.0661995,242.111005 104.18564,255.902633 122.267089,262.663724 C140.671392,269.546232 158.479658,268.673029 176.263089,257.34633 C179.225062,264.115737 182.056239,270.582434 185,277.311924 C168.469903,287.93008 151.03416,290.752607 132.593433,288.026548 C115.576572,285.510058 100.697167,277.965579 87.3012315,267.342433 C78.4583579,260.333518 69.8621776,253.001934 60.8769174,246.187619 C48.8336555,237.435623 36.7771483,237.435623 22.5583508,237.159525 L22.5583508,279.939851 L0,279.939851 L0,147 L22.5583508,147 C29.7538438,147 50.9644884,147.239507 58.1219012,148.427064 C75.9136104,151.379324 90.1638655,162.681074 95.3146199,177.924715 C101.775,197.037064 94.3907623,218.65426 77.7563586,229.322314 C77.2348261,229.656626 76.8705812,229.877838 76.3407704,230.183875" id="Fill-14" fill="#FFFFFF"></path>
                <g id="Group-18" transform="translate(356.000000, 0.000000)">
                    <mask id="mask-4" fill="white">
                        <use xlink:href="#path-3"></use>
                    </mask>
                    <g id="Clip-17"></g>
                    <polygon id="Fill-16" fill="#FFFFFF" mask="url(#mask-4)" points="30.523939 -0.000165700632 42 -0.000165700632 42 50 30.7175789 50 30.7175789 30.5053206 11.4082043 30.601427 11.3502778 49.991715 0 49.991715 0 0.0942836596 11.2724908 0.0942836596 11.2724908 18.7273197 30.523939 18.7273197"></polygon>
                </g>
                <polygon id="Fill-19" fill="#FFFFFF" points="317.751012 10.7331145 303 10.7331145 303 0 344 0 344 10.6452469 329.409963 10.6452469 329.409963 50 317.751012 50"></polygon>
                <mask id="mask-6" fill="white">
                    <use xlink:href="#path-5"></use>
                </mask>
                <g id="Clip-22"></g>
                <polygon id="Fill-21" fill="#FFFFFF" mask="url(#mask-6)" points="303 95 447 95 447 83 303 83"></polygon>
                <polygon id="Fill-23" fill="#FFFFFF" mask="url(#mask-6)" points="446.965091 12.435933 424.081691 12.435933 424.081691 20.188716 443.105201 20.188716 443.105201 31.9467182 424.146521 31.9467182 424.146521 39.2601658 447 39.2601658 447 50.9735738 412 51 412 1 446.965091 1"></polygon>
            </g>
        </g>
    </g>
</svg>